<?xml version="1.0" encoding="UTF-8"?>
<svg id="Capa_1" data-name="Capa 1" xmlns="http://www.w3.org/2000/svg" viewBox="0 0 387.5 387.5">
  <defs>
    <style>
      .cls-1 {
        fill: #fff;
      }
    </style>
  </defs>
  <path class="cls-1" d="m244.74,193.69c58.49,61.91,110.22,129.82,142.76,193.81-63.97-32.53-131.86-84.25-193.75-142.71C131.86,303.25,63.97,354.97,0,387.5c32.54-63.99,84.27-131.9,142.76-193.81-41.47-44.06-78.37-89.79-107.01-132.56C22.73,41.42,10.34,21.51,0,0c21.52,10.34,41.42,22.73,61.13,35.74,42.81,28.67,88.55,65.59,132.62,107.07,44.07-41.48,89.81-78.4,132.62-107.07,19.71-13.01,39.62-25.4,61.13-35.74-10.33,21.51-22.73,41.42-35.75,61.13-28.64,42.77-65.54,88.5-107.01,132.56Z"/>
</svg>